# xmcd
#
# Track frame offsets:
#	150
#	11619
#	27038
#	40443
#	53091
#	65627
#	81519
#	92939
#	110179
#	126247
#	141389
#	153986
#
# Disc length: 2263 seconds
# Revision: 0
# Processed by: cddbd v1.5.2PL0 Copyright (c) Steve Scherf et al.
# Submitted via: dBpowerAMP V12.0
#
DISCID=ac08d50c
DTITLE=Keith Hall Blues Band - The Thrill
DYEAR=2016
DGENRE=Blues
TTITLE0=The Thrill
TTITLE1=Everybody Know
TTITLE2=For Your Love
TTITLE3=Blue Is The Day
TTITLE4=Gotta Get Back
TTITLE5=Hit And Run
TTITLE6=Evie Rose
TTITLE7=Drink From The Cup
TTITLE8=Something New
TTITLE9=Room Number Five
TTITLE10=The Wolf And The Spider
TTITLE11=Last Snow
EXTD=
EXTT0=
EXTT1=
EXTT2=
EXTT3=
EXTT4=
EXTT5=
EXTT6=
EXTT7=
EXTT8=
EXTT9=
EXTT10=
EXTT11=
PLAYORDER=
